<?xml version="1.0" encoding="UTF-8" standalone="no"?>
<!-- Created with Inkscape (http://www.inkscape.org/) -->

<svg
   xmlns:dc="http://purl.org/dc/elements/1.1/"
   xmlns:cc="http://creativecommons.org/ns#"
   xmlns:rdf="http://www.w3.org/1999/02/22-rdf-syntax-ns#"
   xmlns:svg="http://www.w3.org/2000/svg"
   xmlns="http://www.w3.org/2000/svg"
   xmlns:sodipodi="http://sodipodi.sourceforge.net/DTD/sodipodi-0.dtd"
   xmlns:inkscape="http://www.inkscape.org/namespaces/inkscape"
   width="48"
   height="48"
   viewBox="0 0 12.7 12.7"
   version="1.1"
   id="svg4276"
   inkscape:version="0.92+devel unknown"
   sodipodi:docname="logo.svg"
   inkscape:export-filename="/mnt/sda5/Projects/vsteams/vsteams-logo/logo.png"
   inkscape:export-xdpi="900.6626"
   inkscape:export-ydpi="900.6626">
  <defs
     id="defs4270" />
  <sodipodi:namedview
     id="base"
     pagecolor="#ffffff"
     bordercolor="#666666"
     borderopacity="1.0"
     inkscape:pageopacity="0.0"
     inkscape:pageshadow="2"
     inkscape:zoom="4.7326372"
     inkscape:cx="17.163228"
     inkscape:cy="36.701232"
     inkscape:document-units="mm"
     inkscape:current-layer="layer1"
     inkscape:document-rotation="0"
     showgrid="false"
     units="px"
     inkscape:window-width="1280"
     inkscape:window-height="906"
     inkscape:window-x="0"
     inkscape:window-y="27"
     inkscape:window-maximized="1" />
  <metadata
     id="metadata4273">
    <rdf:RDF>
      <cc:Work
         rdf:about="">
        <dc:format>image/svg+xml</dc:format>
        <dc:type
           rdf:resource="http://purl.org/dc/dcmitype/StillImage" />
        <dc:title></dc:title>
      </cc:Work>
    </rdf:RDF>
  </metadata>
  <g
     inkscape:label="Layer 1"
     inkscape:groupmode="layer"
     id="layer1"
     transform="translate(0,-284.30001)">
    <path
       style="fill:#ff0043;stroke-width:0.00470646;fill-opacity:0.96634716"
       d="m 7.3481966,291.94572 c -0.2061381,-0.36131 -0.9683508,-1.69681 -1.693806,-2.96779 -0.7254552,-1.27098 -1.3693692,-2.39929 -1.4309201,-2.50737 l -0.1119106,-0.19649 h 3.6573512 3.6573499 l -0.0095,0.0106 c -0.0052,0.006 -0.276132,0.46764 -0.60207,1.02625 l -0.592616,1.01567 -0.4635863,-0.003 c -0.7259894,-0.005 -2.0824981,-0.011 -2.0835997,-0.01 -5.466e-4,5.6e-4 0.2818609,0.49649 0.6275735,1.10209 0.3457129,0.60561 0.6296308,1.10369 0.6309288,1.10684 0.00177,0.004 -1.1788299,2.0344 -1.205289,2.07254 -0.00418,0.006 -0.076393,-0.11743 -0.3799517,-0.64949 z"
       id="path4849"
       inkscape:connector-curvature="0" />
    <path
       style="fill:#5a3191;stroke-width:0.00470646;fill-opacity:1"
       d="m 6.2243558,294.92705 c -0.037378,-0.0654 -1.1623845,-2.0366 -2.5000122,-4.38053 -1.3376287,-2.34393 -2.4362259,-4.26858 -2.4413279,-4.27699 l -0.00928,-0.0153 H 2.4686189 3.663502 l 1.3178273,2.30904 c 0.7248044,1.26998 1.3198302,2.30881 1.322278,2.30853 0.00245,-2.8e-4 0.054493,-0.0863 0.1156537,-0.19119 l 0.1112039,-0.19068 0.599471,1.0504 c 0.3297105,0.57771 0.5988503,1.05243 0.5980887,1.05492 -0.00313,0.0102 -1.4296324,2.45045 -1.4325443,2.45054 -0.00174,6e-5 -0.033748,-0.0534 -0.071128,-0.11874 z"
       id="path4851"
       inkscape:connector-curvature="0" />
  </g>
</svg>
